<?xml version="1.0" encoding="utf-8"?>
<!DOCTYPE svg PUBLIC "-//W3C//DTD SVG 1.1//EN" "http://www.w3.org/Graphics/SVG/1.1/DTD/svg11.dtd">
<svg version="1.1" xmlns="http://www.w3.org/2000/svg" xmlns:xlink="http://www.w3.org/1999/xlink" x="0px" y="0px" width="415px"
	 height="149.183px" viewBox="0 0 415 149.183" enable-background="new 0 0 415 149.183" xml:space="preserve">
	<g>
		<g>
			<rect x="116.588" y="54.767" fill="none" width="298.412" height="94.416"/>
			<path fill="#3A6AB3" d="M162.243,138.366l-1.772-8.379h-0.43c-2.937,3.688-5.864,6.186-8.782,7.492
				c-2.919,1.308-6.562,1.961-10.93,1.961c-5.837,0-10.412-1.504-13.723-4.512c-3.313-3.008-4.968-7.286-4.968-12.837
				c0-11.888,9.507-18.118,28.521-18.691l9.99-0.322v-3.652c0-4.619-0.994-8.03-2.981-10.232s-5.166-3.303-9.534-3.303
				c-4.906,0-10.456,1.504-16.65,4.512l-2.739-6.821c2.9-1.575,6.078-2.811,9.534-3.706c3.455-0.895,6.919-1.343,10.393-1.343
				c7.018,0,12.219,1.558,15.603,4.673s5.076,8.11,5.076,14.985v40.176H162.243z M142.101,132.082c5.55,0,9.91-1.521,13.079-4.565
				c3.169-3.043,4.753-7.305,4.753-12.783v-5.317l-8.916,0.376c-7.09,0.251-12.202,1.352-15.334,3.303
				c-3.134,1.952-4.7,4.987-4.7,9.104c0,3.223,0.975,5.676,2.927,7.358C135.861,131.241,138.591,132.082,142.101,132.082z"/>
			<path fill="#3A6AB3" d="M214.074,78.425c2.613,0,4.959,0.215,7.035,0.645l-1.234,8.271c-2.436-0.537-4.584-0.806-6.445-0.806
				c-4.763,0-8.836,1.934-12.22,5.801s-5.076,8.684-5.076,14.448v31.582h-8.916V79.499h7.358l1.021,10.903h0.43
				c2.184-3.831,4.815-6.785,7.896-8.862C207.001,79.464,210.385,78.425,214.074,78.425z"/>
			<path fill="#3A6AB3" d="M240.93,108.234c1.539-2.184,3.885-5.049,7.036-8.594l19.014-20.142h10.581l-23.848,25.083l25.513,33.784
				H268.43l-20.786-27.822l-6.714,5.801v22.021h-8.809V54.792h8.809v44.312c0,1.97-0.144,5.014-0.43,9.131H240.93z"/>
			<path fill="#3A6AB3" d="M350.5,59.841v50.811c0,8.952-2.704,15.988-8.11,21.108c-5.407,5.121-12.837,7.681-22.29,7.681
				s-16.767-2.578-21.94-7.734c-5.175-5.156-7.762-12.246-7.762-21.27V59.841h9.131v51.24c0,6.553,1.79,11.584,5.371,15.093
				c3.58,3.51,8.844,5.264,15.791,5.264c6.624,0,11.727-1.764,15.308-5.29c3.58-3.527,5.371-8.585,5.371-15.174V59.841H350.5z"/>
			<path fill="#3A6AB3" d="M407.917,122.307c0,5.479-2.041,9.704-6.123,12.676c-4.082,2.973-9.812,4.458-17.188,4.458
				c-7.807,0-13.894-1.235-18.262-3.706v-8.271c2.828,1.433,5.863,2.561,9.104,3.384c3.24,0.824,6.364,1.235,9.372,1.235
				c4.654,0,8.235-0.743,10.742-2.229c2.506-1.485,3.76-3.75,3.76-6.794c0-2.291-0.993-4.252-2.981-5.882
				c-1.986-1.629-5.863-3.553-11.628-5.773c-5.479-2.041-9.372-3.822-11.683-5.344c-2.309-1.522-4.027-3.25-5.156-5.184
				c-1.127-1.934-1.691-4.243-1.691-6.929c0-4.798,1.951-8.584,5.854-11.36c3.902-2.774,9.256-4.163,16.06-4.163
				c6.338,0,12.532,1.289,18.584,3.867l-3.169,7.251c-5.908-2.435-11.262-3.652-16.06-3.652c-4.226,0-7.412,0.663-9.561,1.987
				c-2.148,1.325-3.223,3.151-3.223,5.479c0,1.576,0.402,2.919,1.209,4.028c0.805,1.11,2.103,2.167,3.894,3.169
				c1.79,1.003,5.228,2.453,10.313,4.351c6.982,2.543,11.7,5.103,14.153,7.681C406.69,115.163,407.917,118.404,407.917,122.307z"/>
		</g>
		<path fill="#3A6AB3" d="M85.333,67c6.854-9.813,8-10.333,8-10.333S97,106.834,107.833,139c-3.167,0-4.333,0-11.25,0
			C87,108.834,85.479,68.375,85.333,67z"/>
		<path fill="#3A6AB3" d="M21,68.5c0,0,3.875,2.5,7.833,9.833c-0.227,2.522-3.5,41.333-9.167,60.667c-3.667,0-6,0-10.833,0
			C17.334,119.5,21,68.5,21,68.5z"/>
		<g>
			<path fill="#CAE6EF" d="M50.125,100.975c-3.069,0-5.607-4.952-9.119-11.806c-4.488-8.76-10.577-20.644-22.081-30.601l11.909-4.679
				c2.609,2.075,16.219,13.443,20.835,28.283c0.116,0.372,0.438,0.643,0.824,0.694c0.044,0.006,0.088,0.009,0.131,0.009
				c0.339,0,0.66-0.173,0.844-0.464c21.394-33.729,46.901-51.991,64.532-61.371c11.456-6.095,21.434-9.455,27.802-11.156
				c-45.665,23.93-64.397,52.84-76.989,72.272C61.471,93.488,56.62,100.975,50.125,100.975z"/>
			<path fill="#3A6AB3" d="M136.666,13.806C96.858,37.037,79.08,64.474,67.975,81.611c-7.165,11.058-11.898,18.363-17.85,18.363
				c-2.458,0-5.132-5.219-8.229-11.262c-4.365-8.519-10.229-19.964-21.086-29.811l9.851-3.87c3.375,2.75,15.732,13.546,20.054,27.437
				c0.231,0.744,0.874,1.286,1.647,1.388c0.088,0.012,0.176,0.018,0.263,0.018c0.678,0,1.318-0.346,1.688-0.929
				c21.183-33.396,46.407-51.526,63.837-60.854C125.11,18.369,131.402,15.702,136.666,13.806 M153,7.375
				c-1.667,0-58.75,8.875-100.375,74.5C47.375,65,31,52.75,31,52.75l-14,5.5c22,18.125,24.875,43.725,33.125,43.725
				C69.125,101.975,73,46.167,153,7.375L153,7.375z"/>
		</g>
	</g>
</svg>
